<svg width="1439" height="1078" viewBox="0 0 1439 1078" fill="none" xmlns="http://www.w3.org/2000/svg">
<g id="web_developer_isometric 1">
<path id="Vector" d="M699.356 1046.56L79.1827 680.218C59.4462 669.15 42.5137 650.932 61.747 639.038L684.185 280.495C693.532 274.71 707.697 270.937 717.187 276.435L1368.13 653.986C1387.87 665.449 1391.43 697.465 1371.73 708.928L781.106 1045.98C768.705 1053.17 754.643 1057.01 740.308 1057.11C725.972 1057.21 711.857 1053.57 699.356 1046.56Z" fill="#E75D48"/>
<path id="Vector_2" opacity="0.32" d="M1158.73 656.143C1111.42 683.704 1077.62 702.246 1004.86 743.749C1059.94 777.202 1108.07 801.745 1114.26 805.41L1272.44 715.577C1259.6 709.001 1217.61 685.249 1158.73 656.143Z" fill="url(#paint0_linear_528_0)"/>
<path id="Vector_3" opacity="0.32" d="M542.939 734.729C485.922 767.968 445.191 790.282 357.509 840.302C423.872 880.619 481.896 910.228 489.373 914.612L679.908 806.488C664.63 798.439 614.048 769.8 542.939 734.729Z" fill="url(#paint1_linear_528_0)"/>
<path id="Vector_4" opacity="0.32" d="M195.194 696.927C224.781 677.235 254.871 658.263 284.782 639.11L242.289 608.1L77.7095 676.732C97.5899 687.153 124.445 706.665 152.701 726.536C166.758 716.511 180.814 706.485 195.194 696.927Z" fill="url(#paint2_linear_528_0)"/>
<path id="Vector_5" d="M300.924 529.155C300.68 528.139 300.227 527.184 299.594 526.352C298.433 524.939 297.049 523.725 295.496 522.759C274.609 508.637 245.669 504.792 223.596 518.555C218.563 521.717 211.049 528.867 214.033 535.623C215.759 539.54 221.007 541.839 224.818 543.42C236.936 548.261 249.601 551.603 262.53 553.374C267.203 554.164 271.949 554.955 276.658 555.386C279.916 555.7 283.201 555.189 286.21 553.902C289.219 552.615 291.856 550.592 293.878 548.02C297.15 543.744 302.398 535.407 300.924 529.155Z" fill="#754C24"/>
<path id="Vector_6" d="M213.421 532.531C213.421 532.531 232.474 549.779 265.405 547.264C298.335 544.749 300.887 529.297 300.887 529.297C300.887 529.297 292.367 638.391 287.873 640.26C283.38 642.128 266.555 650.249 258.43 650.86C250.306 651.471 224.637 641.194 223.99 638.355C223.343 635.516 213.421 532.531 213.421 532.531Z" fill="#FF8F6F"/>
<path id="Vector_7" d="M219.39 373.706C218.384 371.658 215.256 373.455 216.298 375.503C238.839 420.923 243.225 472.056 247.287 521.716C247.467 523.98 251.062 524.016 250.882 521.716C246.82 471.229 242.29 419.557 219.39 373.706Z" fill="#007F68"/>
<path id="Vector_8" d="M216.549 373.994C216.549 373.994 222.84 397.567 216.333 409.353C209.826 421.139 204.469 423.475 212.235 438.099C220 452.724 240.779 454.701 242.145 465.912C243.511 477.123 232.223 394.009 216.549 373.994Z" fill="#007F68"/>
<path id="Vector_9" d="M288.628 416.539C271.268 452.827 261.483 492.269 259.868 532.46C259.868 535.263 264.146 535.227 264.254 532.46C265.778 493.033 275.306 454.327 292.259 418.695C293.625 416.216 289.85 413.988 288.628 416.539Z" fill="#007F68"/>
<path id="Vector_10" d="M291.72 428.002C291.72 425.63 291.181 420.815 291.432 416.827L288.916 418.408C280.36 439.213 267.561 488.083 263.751 503.031C268.964 491.82 290.282 490.274 296.537 474.284C299.298 467.497 299.426 459.924 296.897 453.047C293.811 445.038 292.063 436.577 291.72 428.002Z" fill="#007F68"/>
<path id="Vector_11" opacity="0.32" d="M771.545 834.084C829.496 802.894 966.645 733.938 1024.17 702.029L693.138 495.017L454.286 657.112C514.897 688.805 687.673 782.232 771.545 834.084Z" fill="url(#paint3_linear_528_0)"/>
<path id="Vector_12" d="M492.177 485.1C492.429 561.746 492.86 630.738 492.86 630.738C492.86 630.738 494.478 636.991 506.018 631.888V480.501C501.416 482.046 496.815 483.519 492.177 485.1Z" fill="#5B434D"/>
<path id="Vector_13" d="M812.816 671.379C813.068 748.024 813.499 817.016 813.499 817.016C813.499 817.016 815.117 823.269 826.657 818.166V666.923C822.056 668.36 817.454 669.941 812.816 671.379Z" fill="#5B434D"/>
<path id="Vector_14" d="M1010.29 555.241C1010.54 631.887 1010.97 700.879 1010.97 700.879C1010.97 700.879 1012.59 707.132 1024.13 702.029V550.786C1019.56 552.295 1014.96 553.804 1010.29 555.241Z" fill="#5B434D"/>
<path id="Vector_15" d="M489.481 480.501V493.545L820.365 684.89L1023.84 551.326L1024.17 536.737" fill="#A5DD73"/>
<path id="Vector_16" opacity="0.76" d="M489.481 480.501V493.545L820.365 684.89L1023.84 551.326L1024.17 536.737" fill="#6DB720"/>
<path id="Vector_17" d="M489.481 480.5L702.377 359.118L1024.17 536.736L819.214 671.81L489.481 480.5Z" fill="#A5DD73"/>
<path id="Vector_18" d="M784.919 417.33L740.089 438.89C738.397 439.701 736.959 440.957 735.928 442.524C734.898 444.091 734.314 445.909 734.24 447.783C734.166 449.656 734.605 451.515 735.509 453.158C736.413 454.801 737.748 456.167 739.37 457.108L845.674 519.093C847.972 520.431 850.698 520.831 853.284 520.208C855.869 519.585 858.115 517.989 859.551 515.751L885.363 475.614" fill="#56403D"/>
<path id="Vector_19" d="M1010.29 302.451L644.066 91.6304C642.253 90.5543 640.187 89.9791 638.078 89.9635C635.97 89.9479 633.895 90.4925 632.066 91.5417C630.238 92.5909 628.721 94.1068 627.671 95.9345C626.621 97.7622 626.076 99.8358 626.091 101.943V325.916C626.096 327.526 626.523 329.107 627.33 330.501C628.138 331.895 629.297 333.052 630.693 333.857L1020.35 558.692C1021.03 559.085 1021.79 559.293 1022.58 559.295C1023.36 559.296 1024.12 559.091 1024.8 558.701C1025.47 558.31 1026.03 557.748 1026.42 557.071C1026.81 556.394 1027.01 555.627 1027.01 554.847V331.773C1027.03 325.851 1025.5 320.026 1022.56 314.881C1019.63 309.736 1015.4 305.45 1010.29 302.451Z" fill="#FF3C38"/>
<path id="Vector_20" d="M650.429 111.394L997.203 310.824C1000.91 312.953 1003.98 316.021 1006.12 319.718C1008.26 323.414 1009.39 327.61 1009.39 331.881V492.503C1009.39 494.044 1008.99 495.559 1008.22 496.895C1007.46 498.232 1006.35 499.342 1005.01 500.114C1003.68 500.887 1002.17 501.294 1000.62 501.295C999.083 501.296 997.568 500.891 996.232 500.121L642.592 297.313C641.27 296.554 640.172 295.46 639.408 294.142C638.644 292.823 638.242 291.326 638.242 289.803V118.58C638.226 117.146 638.588 115.733 639.293 114.483C639.998 113.234 641.02 112.192 642.256 111.463C643.492 110.734 644.898 110.344 646.333 110.332C647.768 110.32 649.181 110.686 650.429 111.394Z" fill="#200A52"/>
<path id="Vector_21" d="M800.033 413.72C802.08 413.326 803.736 412.991 803.733 412.972C803.729 412.952 802.066 413.256 800.019 413.65C797.972 414.044 796.316 414.379 796.319 414.399C796.323 414.418 797.986 414.114 800.033 413.72Z" fill="#AB643C"/>
<path id="Vector_22" d="M983.074 319.914C985.159 319.914 986.849 318.08 986.849 315.818C986.849 313.556 985.159 311.722 983.074 311.722C980.99 311.722 979.3 313.556 979.3 315.818C979.3 318.08 980.99 319.914 983.074 319.914Z" fill="#659FE4"/>
<path id="Vector_23" d="M971.032 313.914C973.117 313.914 974.807 312.08 974.807 309.817C974.807 307.555 973.117 305.721 971.032 305.721C968.948 305.721 967.258 307.555 967.258 309.817C967.258 312.08 968.948 313.914 971.032 313.914Z" fill="#C5E9FF"/>
<path id="Vector_24" d="M657.691 155.771L870.336 276.543" stroke="#00A99D" stroke-width="4" stroke-miterlimit="10"/>
<path id="Vector_25" d="M658.446 187.357L692.886 206.904" stroke="#D4145A" stroke-width="4" stroke-miterlimit="10"/>
<path id="Vector_26" d="M703.06 213.516L894.458 318.692" stroke="#29ABE2" stroke-width="4" stroke-miterlimit="10"/>
<path id="Vector_27" d="M657.691 216.175L731.173 256.672" stroke="#F7931E" stroke-width="4" stroke-miterlimit="10"/>
<path id="Vector_28" d="M743.36 264.361L904.524 350.529" stroke="#00A99D" stroke-width="4" stroke-miterlimit="10"/>
<path id="Vector_29" d="M1138.2 289.767V444.28C1138.21 447.328 1137.4 450.322 1135.87 452.957C1134.34 455.593 1132.14 457.775 1129.49 459.281C1126.84 460.786 1123.83 461.561 1120.78 461.527C1117.74 461.493 1114.75 460.65 1112.14 459.085L965.064 371.407C962.498 369.881 960.373 367.713 958.898 365.118C957.423 362.522 956.649 359.588 956.652 356.603V204.821C956.649 201.796 957.443 198.824 958.955 196.204C960.467 193.584 962.643 191.409 965.264 189.897C967.884 188.385 970.857 187.59 973.883 187.592C976.909 187.594 979.881 188.393 982.5 189.908L1129.57 274.783C1132.2 276.298 1134.39 278.482 1135.9 281.113C1137.42 283.745 1138.21 286.731 1138.2 289.767Z" fill="#A5DD73"/>
<path id="Vector_30" d="M1033.23 272.302L985.556 307.337L1028.3 367.31" stroke="#006837" stroke-width="4" stroke-miterlimit="10"/>
<path id="Vector_31" d="M1075.4 297.599L1110.48 366.088L1061.16 389.086" stroke="#006837" stroke-width="4" stroke-miterlimit="10"/>
<path id="Vector_32" d="M660.747 439.177L583.491 483.303C582.685 483.771 582.016 484.442 581.551 485.249C581.086 486.056 580.841 486.971 580.841 487.903C580.841 488.834 581.086 489.749 581.551 490.556C582.016 491.364 582.685 492.035 583.491 492.502L798.184 615.861C800.787 617.359 803.737 618.147 806.74 618.147C809.743 618.147 812.694 617.359 815.296 615.861L887.592 574.143C888.435 573.658 889.136 572.959 889.624 572.117C890.111 571.274 890.368 570.319 890.368 569.346C890.368 568.373 890.111 567.417 889.624 566.575C889.136 565.732 888.435 565.034 887.592 564.549L670.454 439.177C668.982 438.315 667.306 437.86 665.6 437.86C663.894 437.86 662.219 438.315 660.747 439.177Z" fill="#200A52"/>
<path id="Vector_33" d="M777.478 509.534L755.44 522.614L771.798 532.1L793.943 519.092L777.478 509.534Z" fill="white"/>
<path id="Vector_34" d="M753.317 495.485L731.28 508.565L752.023 520.603L774.169 507.595L753.317 495.485Z" fill="white"/>
<path id="Vector_35" d="M665.529 444.531L643.132 457.395L663.048 468.966L685.194 455.958L665.529 444.531Z" fill="white"/>
<path id="Vector_36" d="M712.73 471.948L690.692 485.1L707.05 494.586L729.195 481.578L712.73 471.948Z" fill="white"/>
<path id="Vector_37" d="M688.572 457.899L666.535 470.979L687.242 483.016C689.687 481.615 703.563 473.422 709.387 470.008L688.572 457.899Z" fill="white"/>
<path id="Vector_38" d="M797.286 521.033L775.248 534.113L790.922 543.204L813.032 530.196L797.286 521.033Z" fill="white"/>
<path id="Vector_39" d="M732.54 483.447L710.503 496.527L727.831 506.588L749.976 493.58L732.54 483.447Z" fill="white"/>
<path id="Vector_40" d="M816.412 532.101L794.375 545.181L815.118 557.219L837.263 544.211L816.412 532.101Z" fill="white"/>
<path id="Vector_41" d="M840.57 546.151L818.497 559.195L855.705 580.791L878.102 567.927L840.57 546.151Z" fill="white"/>
<path id="Vector_42" d="M640.29 461.205L617.894 474.069L646.869 490.885L669.015 477.878L640.29 461.205Z" fill="white"/>
<path id="Vector_43" d="M696.517 493.832L674.48 506.912L690.837 516.398L712.982 503.391L696.517 493.832Z" fill="white"/>
<path id="Vector_44" d="M737.069 517.44L715.032 530.52L735.775 542.557L757.92 529.549L737.069 517.44Z" fill="white"/>
<path id="Vector_45" d="M716.325 505.33L694.287 518.41L711.615 528.471L733.761 515.463L716.325 505.33Z" fill="white"/>
<path id="Vector_46" d="M761.262 531.418L739.225 544.498L755.582 553.985L777.691 540.977L761.262 531.418Z" fill="white"/>
<path id="Vector_47" d="M781.073 542.916L759.035 555.996L774.71 565.087L796.819 552.079L781.073 542.916Z" fill="white"/>
<path id="Vector_48" d="M672.359 479.817L650.322 492.897L671.029 504.935L693.174 491.927L672.359 479.817Z" fill="white"/>
<path id="Vector_49" d="M800.161 554.021L778.124 567.1L798.867 579.138L820.976 566.13L800.161 554.021Z" fill="white"/>
<path id="Vector_50" d="M802.281 581.114L830.43 597.464L852.863 584.6L824.319 568.034L802.281 581.114Z" fill="white"/>
<path id="Vector_51" d="M785.782 578.85L769.389 588.623L788.406 599.619L805.051 590.061L785.782 578.85Z" fill="white"/>
<path id="Vector_52" d="M792.36 601.919L808.537 611.261L825.218 601.739L808.717 592.181L792.36 601.919Z" fill="white"/>
<path id="Vector_53" d="M612.647 478.345L595.463 487.903L614.948 499.15L631.808 489.484L612.647 478.345Z" fill="white"/>
<path id="Vector_54" d="M635.439 491.604L618.866 501.45L639.681 513.487L656.505 503.821L635.439 491.604Z" fill="white"/>
<path id="Vector_55" d="M660.171 505.941L643.634 515.787L765.433 586.324L782.114 576.73L660.171 505.941Z" fill="white"/>
<path id="Vector_56" d="M1221.28 726.033C1258.67 726.033 1288.97 711.056 1288.97 692.579C1288.97 674.103 1258.67 659.125 1221.28 659.125C1183.89 659.125 1153.59 674.103 1153.59 692.579C1153.59 711.056 1183.89 726.033 1221.28 726.033Z" fill="#FF3C38"/>
<path id="Vector_57" d="M1289.01 603.464V694.448C1289.01 694.448 1238.68 741.161 1153.59 695.202V603.464" fill="#FF3C38"/>
<path id="Vector_58" opacity="0.21" d="M1236.16 691.681C1217.47 706.054 1194.89 712.881 1171.74 715.325C1187.17 722.783 1204.15 726.478 1221.28 726.105C1257.23 726.105 1286.6 712.235 1288.76 694.699L1288.97 694.519V603.464H1287.72C1276.32 636.02 1264.31 669.833 1236.16 691.681Z" fill="#200A52"/>
<path id="Vector_59" d="M1163.72 636.02C1163.72 636.02 1152.51 618.88 1141.94 628.833C1131.37 638.787 1140.61 673.031 1171.63 676.337V689.92C1171.63 689.92 1132.7 684.638 1127.42 649.675C1122.13 614.712 1147.22 609.322 1159.77 618.952" fill="#FF3C38"/>
<path id="Vector_60" d="M1221.28 637.278C1258.67 637.278 1288.97 622.3 1288.97 603.824C1288.97 585.348 1258.67 570.37 1221.28 570.37C1183.89 570.37 1153.59 585.348 1153.59 603.824C1153.59 622.3 1183.89 637.278 1221.28 637.278Z" fill="#663535"/>
<path id="Vector_61" d="M584.173 603.68C567.493 592.038 547.864 585.713 526.653 590.313C504.077 595.272 484.52 609.465 461.512 612.951C457.917 613.49 443.357 612.555 441.128 614.676C377.101 675.259 556.168 668.755 556.168 668.755C573.532 654.382 589.889 640.548 607.146 626.174C601.897 614.676 593.269 610.076 584.173 603.68Z" fill="#F8997C"/>
<path id="Vector_62" d="M499.798 691.644L493.435 874.401C493.183 881.337 503.968 881.337 504.22 874.401L510.583 691.644C510.943 684.709 500.194 684.745 499.798 691.644Z" fill="#F8997C"/>
<path id="Vector_63" d="M634.145 789.419C601.55 757.534 570.394 724.26 540.675 689.597C536.145 684.314 528.56 691.968 533.054 697.214C562.724 731.854 593.881 765.128 626.524 797.037C631.485 801.888 639.142 794.127 634.145 789.419Z" fill="#F8997C"/>
<path id="Vector_64" d="M462.555 674.757C437.246 722.5 413.411 770.974 391.051 820.179C388.21 826.431 397.486 831.929 400.362 825.605C422.722 776.4 446.557 727.926 471.866 680.183C475.102 674.074 465.826 668.612 462.555 674.757Z" fill="#F8997C"/>
<path id="Vector_65" d="M631.052 758.516C634.395 754.923 636.588 751.33 635.438 747.557C633.389 740.837 624.257 738.106 618.002 738.465C611.747 738.825 605.276 742.059 598.949 743.855C592.333 746.229 585.272 747.1 578.277 746.407C577.152 746.242 576.127 745.666 575.401 744.79C573.462 744.36 571.669 743.431 570.199 742.094C568.73 740.758 567.636 739.061 567.025 737.172L546.318 729.77C546.318 729.77 541.033 773.5 541.213 776.483C542.759 800.091 578.026 786.616 578.026 786.616C578.026 786.616 579.284 775.836 579.607 774.507C579.931 773.177 593.448 777.273 599.02 776.411C601.583 775.696 604.012 774.567 606.21 773.069C610.381 770.77 614.479 768.326 618.541 765.883C622.604 763.439 626.846 761.032 631.052 758.516Z" fill="#56403D"/>
<path id="Vector_66" d="M553.725 597.104C545.959 597.858 538.194 598.864 530.465 599.978C533.677 649.638 537.272 699.262 541.25 748.85C561.382 757.079 569.543 753.27 582.017 740.514C584.39 693.189 588.524 643.494 588.416 595.774C576.912 596.277 565.337 596.78 553.725 597.104Z" fill="#34323D"/>
<path id="Vector_67" d="M470.069 583.485C470.069 583.485 466.726 637.852 494.048 649.962C521.37 662.071 577.416 656.035 604.989 639.865C619.245 631.187 634.205 623.722 649.711 617.55C649.711 617.55 656.901 593.762 639.609 583.485C622.317 573.208 584.426 560.488 550.705 583.485" fill="#34323D"/>
<g id="manoIzq">
<path id="Vector_68" d="M588.631 481.506C590.824 480.967 609.267 476.224 613.796 474.715C618.326 473.206 632.347 462.318 639.968 463.935C647.589 465.552 662.94 475.649 663.659 479.027C664.378 482.405 660.064 486.501 658.446 487.974C656.829 489.448 645.72 485.387 641.406 484.705C637.092 484.022 630.226 494.227 626.163 496.024C622.101 497.82 595.857 502.527 595.857 502.527" fill="#FCBF81"/>
<path id="Vector_69" d="M609.375 502.096C612.287 490.993 610.597 472.667 610.597 472.667C610.597 472.667 576.481 478.488 562.101 476.26C547.721 474.033 524.209 443.92 524.209 443.92L527.409 503.57C554.659 509.283 582.88 510.505 609.375 502.096Z" fill="#BA3E00"/>
</g>
<path id="Vector_70" d="M694.143 792.581C697.487 788.988 699.68 785.394 698.529 781.621C696.48 774.902 687.349 772.171 681.094 772.53C674.838 772.89 668.367 776.124 662.04 777.92C655.425 780.294 648.363 781.165 641.369 780.472C640.243 780.306 639.219 779.73 638.493 778.855C636.554 778.425 634.76 777.495 633.291 776.159C631.822 774.823 630.727 773.126 630.117 771.237L609.409 763.834C609.409 763.834 604.125 807.565 604.304 810.548C605.85 834.156 641.117 820.681 641.117 820.681C641.117 820.681 642.375 809.901 642.699 808.571C643.023 807.242 656.54 811.338 662.112 810.476C664.675 809.76 667.103 808.632 669.302 807.134C673.472 804.834 677.571 802.391 681.633 799.947C685.695 797.504 689.973 795.096 694.143 792.581Z" fill="#56403D"/>
<path id="Vector_71" d="M614.479 584.815C607.289 581.437 599.884 581.796 591.328 581.832C592.514 599.332 591.867 605.62 592.945 623.084L593.233 627.719C596.54 679.463 600.423 731.171 604.377 782.879C624.509 791.108 632.67 787.299 645.145 774.543C647.913 719.457 653.126 661.317 651.112 606.482C639.501 594.984 629.219 591.714 614.479 584.815Z" fill="#34323D"/>
<path id="Vector_72" d="M469.6 572.238C469.6 573.568 469.852 578.059 470.068 583.485C481.392 598.398 495.233 607.129 516.803 606.483C534.382 605.98 549.158 598.29 562.819 588.803C561.093 557.002 555.952 502.563 547.935 464.726C547.252 461.528 538.948 459.372 536.503 458.042C530.787 454.916 534.131 449.526 528.522 446.184C520.388 441.449 511.917 437.318 503.178 433.823H502.962C488.977 433.607 464.855 444.387 463.417 463.109C461.224 491.855 464.388 509.283 466.617 537.994C467.443 549.564 468.63 560.991 469.6 572.238Z" fill="#E55600"/>
<path id="Vector_73" d="M518.313 379.313C520.147 379.78 535.677 415.497 529.602 437.201C523.526 458.905 486.642 436.59 477.366 420.061C468.091 403.532 483.442 370.114 518.313 379.313Z" fill="#FCBF81"/>
<path id="Vector_74" d="M517.773 384.308C517.773 384.308 517.773 396.094 507.455 399.903C497.138 403.712 488.546 406.263 489.121 411.042C489.696 415.821 507.779 410.359 507.851 421.283C507.857 428.641 506.865 435.967 504.903 443.059C503.753 448.413 472.8 431.991 462.59 404.035C452.38 376.079 477.94 368.641 479.199 368.461C480.457 368.281 482.794 360.663 495.268 357.933C507.743 355.202 511.338 360.089 511.338 360.089C514.185 358.374 517.516 357.639 520.82 357.995C524.125 358.352 527.222 359.782 529.637 362.065C541.176 371.228 538.265 387.973 525.179 394.764L517.773 384.308Z" fill="#34323D"/>
<g id="manoDer">
<path id="Vector_75" d="M638.207 526.279C640.399 525.74 658.842 520.997 663.372 519.488C667.901 517.979 681.922 507.091 689.543 508.708C697.165 510.325 712.515 520.422 713.234 523.8C713.953 527.177 709.639 531.274 708.021 532.747C706.404 534.22 695.295 530.16 690.981 529.477C686.667 528.794 679.801 538.999 675.738 540.796C671.676 542.593 645.432 547.3 645.432 547.3" fill="#FCBF81"/>
<path id="Vector_76" d="M660.136 517.441C644.067 520.782 611.424 526.1 599.884 521.034C590.932 517.117 561.058 453.084 528.595 446.221L524.209 495.09C524.209 495.09 570.117 553.302 591.328 559.303C606.75 563.651 648.273 557.83 666.499 551.505C667.288 539.796 665.1 528.077 660.136 517.441Z" fill="#E55600"/>
</g>
<path id="Vector_77" d="M558.433 532.497C556.096 529.478 529.493 499.366 529.493 499.366L561.453 564.801L558.433 532.497Z" fill="#34323D"/>
<path id="Vector_78" d="M604.629 625.239C594.643 639.152 580.493 649.533 564.221 654.884C541.429 661.82 508.283 658.478 496.312 634.726C474.526 591.39 494.981 537.131 471.973 494.981C469.317 489.653 465.564 484.946 460.961 481.169C456.358 477.391 451.008 474.629 445.263 473.062C430.343 469.792 420.098 481.003 414.705 494.191C404.999 517.835 405.358 547.264 405.825 572.453C405.849 592.799 407.327 613.117 410.247 633.253C410.247 633.253 424.196 717.732 532.909 695.058C551.736 691.646 569.818 684.957 586.33 675.294C594.791 670.418 602.197 663.907 608.116 656.142C614.839 646.368 610.345 634.905 604.629 625.239Z" fill="#FF3C38"/>
</g>
<defs>
<linearGradient id="paint0_linear_528_0" x1="1118.25" y1="748.492" x2="1195.08" y2="677.524" gradientUnits="userSpaceOnUse">
<stop stop-color="#E75D48"/>
<stop offset="1" stop-color="#502019"/>
</linearGradient>
<linearGradient id="paint1_linear_528_0" x1="44677.8" y1="43086.2" x2="48793.6" y2="36276.6" gradientUnits="userSpaceOnUse">
<stop stop-color="#E75D48"/>
<stop offset="1" stop-color="#502019"/>
</linearGradient>
<linearGradient id="paint2_linear_528_0" x1="9354.54" y1="22826.8" x2="12050.9" y2="19026.6" gradientUnits="userSpaceOnUse">
<stop stop-color="#E75D48"/>
<stop offset="1" stop-color="#502019"/>
</linearGradient>
<linearGradient id="paint3_linear_528_0" x1="108691" y1="71702.5" x2="116141" y2="55006.8" gradientUnits="userSpaceOnUse">
<stop stop-color="#E75D48"/>
<stop offset="1" stop-color="#502019"/>
</linearGradient>
</defs>
</svg>
