<svg width="109" height="50" viewBox="0 0 109 50" fill="none" xmlns="http://www.w3.org/2000/svg">
<path d="M0 0H109V50H0V0ZM1.87125 1.86915V48.1309H107.128V1.86915H1.87125Z" fill="#2B2B2B"/>
<path d="M23.3 10.163V17.7578H18.4776V12.2024H11.3672L12.7752 13.2924V17.7578L23.3 30.6617V36.2172V40.0145C23.3 41.878 21.7864 43.4955 19.8151 43.4955H11.4376C9.4665 43.4955 7.95276 41.8782 7.95276 40.0145V32.1736H12.7752V37.94H18.4776V32.3845L7.95276 19.4806V10.1629C7.95276 8.19395 9.46631 6.68195 11.4376 6.68195H19.8151C21.7864 6.68195 23.3 8.19382 23.3 10.1629V10.163ZM30.5869 32.4201H35.5502L33.0862 12.2372L30.5869 32.4201ZM24.3566 43.5309L28.7565 7.77169L27.8764 6.71687H37.2748L41.8157 43.5307H36.9228L36.2541 37.9753L28.4748 37.9401L29.7772 38.9598L29.214 43.5307H24.3564L24.3566 43.5309ZM48.3629 43.3902H43.5054V7.66656L42.6254 6.57657H48.363V43.3904L48.3629 43.3902ZM56.107 22.1889H61.7742V12.0977H54.6637L56.107 13.1878V22.1889ZM66.5971 10.0579V24.2627C66.5971 26.2316 65.0836 27.7436 63.1123 27.7436H62.4434L66.597 43.3897H61.5987L57.445 27.7436H54.6642L56.1075 28.8336V43.3908H51.25V12.0974V7.63204L50.3699 6.54205L63.1123 6.57722C65.0835 6.57722 66.5971 8.08909 66.5971 10.0582V10.0579ZM73.3198 37.9402H79.0222V12.2383H71.9118L73.3198 13.3283V37.9414V37.9402ZM83.8441 10.163V40.0152C83.8441 41.9842 82.3306 43.4962 80.3593 43.4962H71.9817C70.0106 43.4962 68.4968 41.9844 68.4968 40.0152V10.163C68.4968 8.29957 70.0104 6.68211 71.9817 6.68211H80.3593C82.3304 6.68211 83.8441 8.29944 83.8441 10.163ZM84.5135 6.68224H90.1455L93.4187 33.1232L96.6574 6.68224H101.515L97.0091 43.496H89.7933L85.4285 7.77238H85.3933L84.5135 6.68224Z" fill="#2B2B2B"/>
</svg>
